<svg xmlns="http://www.w3.org/2000/svg" width="24" height="25" viewBox="0 0 24 25" fill="none">
  <path fill-rule="evenodd" clip-rule="evenodd" d="M6.75 9.125C5.85489 9.125 4.99645 9.48058 4.36351 10.1135C3.73058 10.7465 3.375 11.6049 3.375 12.5C3.375 13.3951 3.73058 14.2536 4.36351 14.8865C4.99645 15.5194 5.85489 15.875 6.75 15.875H9.40594C10.0273 15.875 10.5309 16.3787 10.5309 17C10.5309 17.6213 10.0273 18.125 9.40594 18.125H6.75C5.25816 18.125 3.82742 17.5324 2.77252 16.4775C1.71763 15.4226 1.125 13.9918 1.125 12.5C1.125 11.0082 1.71763 9.57742 2.77252 8.52252C3.82742 7.46763 5.25816 6.875 6.75 6.875H9.34734C9.96866 6.875 10.4723 7.37868 10.4723 8C10.4723 8.62132 9.96866 9.125 9.34734 9.125H6.75Z" fill="#242424"/>
  <path fill-rule="evenodd" clip-rule="evenodd" d="M13.5277 8C13.5277 7.37868 14.0314 6.875 14.6527 6.875H17.2501C18.7419 6.875 20.1726 7.46763 21.2275 8.52252C22.2824 9.57742 22.8751 11.0082 22.8751 12.5C22.8751 13.9918 22.2824 15.4226 21.2275 16.4775C20.1726 17.5324 18.7419 18.125 17.2501 18.125H14.5941C13.9728 18.125 13.4691 17.6213 13.4691 17C13.4691 16.3787 13.9728 15.875 14.5941 15.875H17.2501C18.1452 15.875 19.0036 15.5194 19.6365 14.8865C20.2695 14.2536 20.6251 13.3951 20.6251 12.5C20.6251 11.6049 20.2695 10.7464 19.6365 10.1135C19.0036 9.48058 18.1452 9.125 17.2501 9.125H14.6527C14.0314 9.125 13.5277 8.62132 13.5277 8Z" fill="#242424"/>
  <path fill-rule="evenodd" clip-rule="evenodd" d="M6.80005 12.5C6.80005 11.8787 7.30373 11.375 7.92505 11.375H16.1685C16.7898 11.375 17.2935 11.8787 17.2935 12.5C17.2935 13.1213 16.7898 13.625 16.1685 13.625H7.92505C7.30373 13.625 6.80005 13.1213 6.80005 12.5Z" fill="#242424"/>
</svg>
