<svg xmlns="http://www.w3.org/2000/svg" viewBox="0 0 24 24" fill="none">
  <path d="M18 14C17.4092 14.0039 16.8266 14.1386 16.294 14.3945C15.7615 14.6504 15.2922 15.0211 14.92 15.48L9.82003 13.13C10.0598 12.3957 10.0598 11.6042 9.82003 10.87L14.92 8.51999C15.5216 9.24596 16.3604 9.73607 17.2882 9.90383C18.216 10.0716 19.1732 9.90622 19.991 9.4369C20.8087 8.96757 21.4344 8.22447 21.7576 7.33874C22.0808 6.453 22.0807 5.48157 21.7573 4.5959C21.434 3.71022 20.8082 2.96724 19.9903 2.49806C19.1725 2.02889 18.2152 1.86369 17.2875 2.03162C16.3597 2.19955 15.521 2.68981 14.9196 3.41589C14.3181 4.14196 13.9924 5.05717 14 5.99999C14.003 6.23822 14.0265 6.47576 14.07 6.70999L8.79003 9.13999C8.22711 8.58957 7.51427 8.21751 6.74083 8.07042C5.96739 7.92333 5.16775 8.00776 4.44208 8.31312C3.71641 8.61849 3.09699 9.13121 2.66143 9.78705C2.22587 10.4429 1.99353 11.2127 1.99353 12C1.99353 12.7873 2.22587 13.5571 2.66143 14.2129C3.09699 14.8688 3.71641 15.3815 4.44208 15.6869C5.16775 15.9922 5.96739 16.0767 6.74083 15.9296C7.51427 15.7825 8.22711 15.4104 8.79003 14.86L14.07 17.29C14.0265 17.5242 14.003 17.7618 14 18C14 18.7911 14.2346 19.5645 14.6742 20.2223C15.1137 20.8801 15.7384 21.3928 16.4693 21.6955C17.2002 21.9983 18.0045 22.0775 18.7804 21.9231C19.5563 21.7688 20.269 21.3878 20.8285 20.8284C21.3879 20.269 21.7688 19.5563 21.9232 18.7804C22.0775 18.0044 21.9983 17.2002 21.6955 16.4693C21.3928 15.7384 20.8801 15.1136 20.2223 14.6741C19.5645 14.2346 18.7912 14 18 14ZM18 3.99999C18.3956 3.99999 18.7823 4.11729 19.1112 4.33705C19.4401 4.55682 19.6964 4.86917 19.8478 5.23463C19.9992 5.60008 20.0388 6.00221 19.9616 6.39017C19.8844 6.77813 19.6939 7.1345 19.4142 7.41421C19.1345 7.69391 18.7782 7.88439 18.3902 7.96156C18.0022 8.03873 17.6001 7.99913 17.2347 7.84775C16.8692 7.69638 16.5569 7.44003 16.3371 7.11113C16.1173 6.78223 16 6.39556 16 5.99999C16 5.46956 16.2107 4.96085 16.5858 4.58578C16.9609 4.21071 17.4696 3.99999 18 3.99999ZM6.00003 14C5.60447 14 5.21779 13.8827 4.88889 13.6629C4.55999 13.4432 4.30364 13.1308 4.15227 12.7654C4.00089 12.3999 3.96129 11.9978 4.03846 11.6098C4.11563 11.2218 4.30611 10.8655 4.58581 10.5858C4.86552 10.3061 5.22189 10.1156 5.60985 10.0384C5.99781 9.96125 6.39994 10.0009 6.7654 10.1522C7.13085 10.3036 7.4432 10.56 7.66297 10.8889C7.88273 11.2178 8.00003 11.6044 8.00003 12C8.00003 12.5304 7.78931 13.0391 7.41424 13.4142C7.03917 13.7893 6.53046 14 6.00003 14ZM18 20C17.6045 20 17.2178 19.8827 16.8889 19.6629C16.56 19.4432 16.3036 19.1308 16.1523 18.7654C16.0009 18.3999 15.9613 17.9978 16.0385 17.6098C16.1156 17.2218 16.3061 16.8655 16.5858 16.5858C16.8655 16.3061 17.2219 16.1156 17.6098 16.0384C17.9978 15.9613 18.3999 16.0009 18.7654 16.1522C19.1308 16.3036 19.4432 16.56 19.663 16.8889C19.8827 17.2177 20 17.6044 20 18C20 18.5304 19.7893 19.0391 19.4142 19.4142C19.0392 19.7893 18.5305 20 18 20Z" fill="black"/>
</svg>
