<svg width="24" height="24" viewBox="0 0 24 24" fill="none" xmlns="http://www.w3.org/2000/svg">
<path fill-rule="evenodd" clip-rule="evenodd" d="M9.87381 11.2799C10.3719 11.0294 10.7484 10.7504 11.0064 10.4489C11.4654 9.90583 11.692 9.18577 11.692 8.2932C11.692 7.42463 11.4654 6.68207 11.0124 6.05952C10.2563 5.04543 8.97674 4.52639 7.16759 4.49939H0V19.1301H6.68305C7.43611 19.1301 8.13367 19.0656 8.77872 18.9336C9.42377 18.8001 9.98182 18.5555 10.4544 18.1985C10.8744 17.888 11.2254 17.5025 11.5044 17.0479C11.9455 16.3609 12.166 15.5823 12.166 14.7152C12.166 13.8752 11.9725 13.1596 11.5885 12.5716C11.1999 11.9835 10.6299 11.553 9.87381 11.2799ZM2.95674 7.0406H6.18501C6.89457 7.0406 7.47961 7.1171 7.93865 7.26862C8.4697 7.48914 8.73522 7.93767 8.73522 8.62173C8.73522 9.23528 8.5327 9.66431 8.13217 9.90583C7.72863 10.1474 7.20509 10.2689 6.56304 10.2689H2.95674V7.0406ZM8.06166 16.3339C7.70463 16.5064 7.20209 16.5919 6.55854 16.5919H2.95674V12.6901H6.60804C7.24409 12.6946 7.73914 12.7786 8.09316 12.9361C8.72322 13.2211 9.03674 13.7431 9.03674 14.5067C9.03674 15.4068 8.71272 16.0128 8.06166 16.3339ZM21.6933 5.18197H15.3373V7.00312H21.6933V5.18197ZM23.0253 10.1324C23.4784 10.7759 23.7694 11.5215 23.9014 12.3691C23.9794 12.8641 24.0094 13.5827 23.9974 14.5172H16.0063C16.0543 15.6018 16.4323 16.3639 17.1554 16.7989C17.5934 17.0705 18.1184 17.207 18.738 17.207C19.389 17.207 19.9201 17.042 20.3281 16.7119C20.5531 16.5319 20.7497 16.2844 20.9192 15.9679H23.8474C23.7694 16.6084 23.4139 17.261 22.7853 17.924C21.8027 18.9741 20.4271 19.5007 18.6585 19.5007C17.1974 19.5007 15.9102 19.0581 14.7957 18.17C13.6766 17.2835 13.12 15.8389 13.12 13.8392C13.12 11.964 13.6241 10.5254 14.6306 9.52484C15.6402 8.52726 16.9453 8.02471 18.552 8.02471C19.509 8.02321 20.3686 8.19273 21.1322 8.53176C21.8987 8.86928 22.5288 9.40333 23.0253 10.1324ZM16.8433 10.9755C16.4383 11.388 16.1833 11.946 16.0783 12.6496H21.0212C20.9687 11.898 20.7121 11.3295 20.2576 10.938C19.7971 10.5494 19.2315 10.3559 18.555 10.3559C17.8214 10.3574 17.2484 10.5644 16.8433 10.9755Z" fill="#F3F5F9"/>
</svg>
