<svg width="24" height="24" viewBox="0 0 24 24" fill="none" xmlns="http://www.w3.org/2000/svg">
<g id="Frame 192" clip-path="url(#clip0_389_936)">
<path id="Icon" fill-rule="evenodd" clip-rule="evenodd" d="M12 0.783691C5.37 0.783691 0 6.06011 0 12.5746C0 17.792 3.435 22.1989 8.205 23.7612C8.805 23.8643 9.03 23.5106 9.03 23.2011C9.03 22.9211 9.015 21.9925 9.015 21.005C6 21.5504 5.22 20.2829 4.98 19.6196C4.845 19.2806 4.26 18.2342 3.75 17.9542C3.33 17.7331 2.73 17.1878 3.735 17.173C4.68 17.1583 5.355 18.0279 5.58 18.3816C6.66 20.1649 8.385 19.6638 9.075 19.3543C9.18 18.5879 9.495 18.0721 9.84 17.7773C7.17 17.4825 4.38 16.4656 4.38 11.9555C4.38 10.6733 4.845 9.61211 5.61 8.78675C5.49 8.49198 5.07 7.28341 5.73 5.66217C5.73 5.66217 6.735 5.35266 9.03 6.87073C9.99 6.60544 11.01 6.47279 12.03 6.47279C13.05 6.47279 14.07 6.60544 15.03 6.87073C17.325 5.33792 18.33 5.66217 18.33 5.66217C18.99 7.28341 18.57 8.49198 18.45 8.78675C19.215 9.61211 19.68 10.6586 19.68 11.9555C19.68 16.4803 16.875 17.4825 14.205 17.7773C14.64 18.1458 15.015 18.8532 15.015 19.9586C15.015 21.5356 15 22.8032 15 23.2011C15 23.5106 15.225 23.8791 15.825 23.7612C20.565 22.1989 24 17.7773 24 12.5746C24 6.06011 18.63 0.783691 12 0.783691Z" fill="#C5C6C8"/>
</g>
<defs>
<clipPath id="clip0_389_936">
<rect width="24" height="24" fill="white"/>
</clipPath>
</defs>
</svg>
