<svg version="1.0" xmlns="http://www.w3.org/2000/svg" width="768" height="768" viewBox="0 0 576 576"><path d="M26.9 2.9L24 5.8v244.4l2.9 2.9 2.9 2.9h25.6c27 0 29.5-.4 31.5-4.7.8-1.7 1.1-28.5 1.1-92.2 0-89.2 0-89.9 2.1-92.4l2-2.7 72-.2 72.1-.3 2.4-2.8 2.4-2.8V31.7c-.1-27.5-.2-28.1-4.7-30.5C234.7.3 207.7 0 132 0H29.8l-2.9 2.9zM308.6 2.1l-2.6 2v55.8l2.6 2c2.6 2.1 3.6 2.1 49.5 2.1 30.5 0 47.8.4 49.6 1.1 3.2 1.2 60.7 58 62.9 62.1 1.2 2.3 1.4 12.7 1.4 62.8v60.2l2.9 2.9 2.9 2.9h25.6c27 0 29.5-.4 31.5-4.7 1.5-3.3 1.6-149.9.1-154-1.6-4.2-90.5-93.1-95.5-95.4C435.7.1 432 0 373.4 0c-61.4 0-62.2 0-64.8 2.1zM26.9 322.9l-2.9 2.9v244.4l2.9 2.9 2.9 2.9H132c75.7 0 102.7-.3 104.3-1.2 4.5-2.4 4.6-3 4.7-30.5 0-14.4-.3-26.9-.6-27.8-1.8-4.5-2.1-4.5-76.9-4.5H92.9l-2.4-2.5-2.5-2.4v-90c0-63.8-.3-90.7-1.1-92.4-2-4.3-4.5-4.7-31.5-4.7H29.8l-2.9 2.9zM474.5 322.5l-2.5 2.4v59.7c0 57.5-.1 59.9-2 63.8-2.7 5.6-57.2 60-62.3 62.1-3.1 1.3-10.6 1.5-50.5 1.5-45.7 0-46.9.1-49 2-1.2 1.1-2.4 3.1-2.7 4.3-.3 1.2-.5 13.6-.3 27.4.3 24.7.3 25.3 2.6 27.5l2.3 2.3 61.5.3c42.2.2 62.8-.1 65.7-.9 3.7-.9 9.8-6.7 50.4-47.2 39.3-39.4 46.3-46.8 47.2-50.2.7-2.7 1.1-28.2 1.1-77.3 0-77.7 0-77.8-4.5-79.6-.9-.3-13.6-.6-28.1-.6h-26.5l-2.4 2.5z"/></svg>
