<svg viewBox="0 0 39 40" fill="none" xmlns="http://www.w3.org/2000/svg">
<path d="M4.6108 4.77777C4.36901 4.77777 4.16751 4.98005 4.16751 5.22278V8.33782V18.5595C4.16751 18.8022 4.36901 19.0045 4.6108 19.0045H7.27057C7.51237 19.0045 7.71387 18.8022 7.71387 18.5595V8.76934C7.71387 8.52661 7.91536 8.32434 8.15716 8.32434H15.7469C15.9887 8.32434 16.1902 8.12206 16.1902 7.87933V5.22278C16.1902 4.98005 15.9887 4.77777 15.7469 4.77777H7.71387H4.6108Z" fill="#00D3F2"/>
<path d="M28.6964 29.9139L25.674 32.948C25.5128 33.1099 25.2844 33.2043 25.0426 33.2043H21.4963H20.1664C19.9246 33.2043 19.7231 33.4065 19.7231 33.6493V36.3193C19.7231 36.562 19.9246 36.7643 20.1664 36.7643H21.4963H25.4187H26.8158C27.0442 36.7643 27.2725 36.6699 27.4472 36.5081L32.2428 31.6939C32.404 31.5321 32.498 31.3029 32.498 31.0601V22.9826C32.498 22.7399 32.2965 22.5376 32.0547 22.5376H29.395C29.1532 22.5376 28.9517 22.7399 28.9517 22.9826V29.2801C28.9517 29.5228 28.8576 29.7521 28.6964 29.9139Z" fill="#00D3F2"/>
<path d="M27.4472 5.03399C27.286 4.87217 27.0576 4.77777 26.8158 4.77777H25.4187H20.1798C19.938 4.77777 19.7365 4.98005 19.7365 5.22278V7.89282C19.7365 8.13555 19.938 8.33782 20.1798 8.33782H25.056C25.2844 8.33782 25.5128 8.43222 25.6874 8.59404L28.7099 11.6282C28.8711 11.79 28.9651 12.0192 28.9651 12.262V18.5595C28.9651 18.8022 29.1666 19.0045 29.4084 19.0045H32.0682C32.31 19.0045 32.5115 18.8022 32.5115 18.5595V10.4819C32.5115 10.2527 32.4174 10.0235 32.2562 9.84815L27.4472 5.03399Z" fill="#00D3F2"/>
<path d="M7.27057 22.551H4.6108C4.36901 22.551 4.16751 22.7533 4.16751 22.996V33.2177V36.3327C4.16751 36.5755 4.36901 36.7777 4.6108 36.7777H7.71387H15.7469C15.9887 36.7777 16.1902 36.5755 16.1902 36.3327V33.6627C16.1902 33.42 15.9887 33.2177 15.7469 33.2177H8.15716C7.91536 33.2177 7.71387 33.0154 7.71387 32.7727V22.996C7.71387 22.7398 7.51237 22.551 7.27057 22.551Z" fill="#00D3F2"/>
<path d="M1.51112 38.1111C-0.702555 37.2222 0.62565 35.4444 3.72479 34.5555C8.59486 32.7778 20.5487 34.5555 23.2052 34.5555C25.8616 34.5555 28.9607 31.8889 32.5026 33.2222C36.0445 34.5555 36.9299 34.5555 38.2581 36.3333C39.5863 38.1111 30.2889 39 27.1898 39C24.0906 39 17.4496 39.4444 13.465 39.8889C9.48037 40.3333 3.7248 39 1.51112 38.1111Z" fill="white"/>
<path d="M3.76818 2.63983C4.02731 1.71599 5.56209 0.335424 9.30592 0.335424C12.2044 0.253127 15.1028 2.63983 16.1897 2.63983C17.2766 2.63983 15.8274 5.866 14.0159 5.866H11.4797C10.0305 5.866 9.30592 4.48336 6.40743 5.866C3.50894 7.24865 2.61957 6.73492 3.76818 2.63983Z" fill="white"/>
<path d="M19.2205 3.97028C19.2205 2.1925 20.106 2.1925 22.3197 1.30361C28.518 0.414722 34.2735 7.08139 34.2735 7.97028C34.2735 8.85917 33.8308 11.0814 32.0598 11.0814C31.0698 11.0814 28.518 7.08139 24.5333 5.74805C20.5487 4.41472 19.2205 5.74806 19.2205 3.97028Z" fill="white"/>
<path d="M7.26676 34.5556C5.05309 34.5556 6.38129 32.3333 10.8086 31C12.5797 31 16.1214 31.8889 17.4496 34.5556C18.7778 37.2222 9.48044 34.5556 7.26676 34.5556Z" fill="white"/>
<path d="M25.4188 31C28.0752 31 26.3043 28.3333 28.9607 26.1111C31.6171 26.1111 30.7316 30.1111 29.8462 32.7778C28.9607 35.4444 26.3043 34.5556 24.0906 35.4444C18.3351 37.7556 18.7778 33.6667 19.6633 32.7778C20.5487 31.8889 22.7624 31 25.4188 31Z" fill="white"/>
</svg>
