<svg xmlns="http://www.w3.org/2000/svg" viewBox="0 0 33 36" fill="none">
  <path d="M0.50063 0C0.227558 0 0 0.22756 0 0.500632V4.00506V15.5044C0 15.7775 0.227558 16.0051 0.50063 16.0051H3.50442C3.77749 16.0051 4.00506 15.7775 4.00506 15.5044V4.49052C4.00506 4.21745 4.23261 3.98989 4.50569 3.98989H13.0771C13.3502 3.98989 13.5777 3.76233 13.5777 3.48925V0.500632C13.5777 0.22756 13.3502 0 13.0771 0H4.00506H0.50063Z" fill="#00D3F2"/>
  <path d="M27.7016 28.2781L24.2882 31.6915C24.1062 31.8736 23.8483 31.9798 23.5752 31.9798H19.5702H18.0683C17.7952 31.9798 17.5676 32.2073 17.5676 32.4804V35.4842C17.5676 35.7573 17.7952 35.9848 18.0683 35.9848H19.5702H24H25.5777C25.8356 35.9848 26.0935 35.8786 26.2908 35.6966L31.7067 30.2807C31.8887 30.0986 31.9949 29.8407 31.9949 29.5676V20.4804C31.9949 20.2073 31.7674 19.9798 31.4943 19.9798H28.4905C28.2174 19.9798 27.9899 20.2073 27.9899 20.4804V27.5651C27.9899 27.8382 27.8837 28.0961 27.7016 28.2781Z" fill="#00D3F2"/>
  <path d="M26.2908 0.288243C26.1087 0.106195 25.8508 0 25.5777 0H24H18.0834C17.8104 0 17.5828 0.22756 17.5828 0.500632V3.50442C17.5828 3.7775 17.8104 4.00506 18.0834 4.00506H23.5904C23.8483 4.00506 24.1062 4.11125 24.3034 4.2933L27.7168 7.7067C27.8989 7.88875 28.0051 8.14665 28.0051 8.41972V15.5044C28.0051 15.7775 28.2326 16.0051 28.5057 16.0051H31.5095C31.7826 16.0051 32.0101 15.7775 32.0101 15.5044V6.41719C32.0101 6.15929 31.9039 5.90139 31.7219 5.70417L26.2908 0.288243Z" fill="#00D3F2"/>
  <path d="M3.50442 19.9949H0.50063C0.227558 19.9949 0 20.2225 0 20.4956V31.9949V35.4994C0 35.7724 0.227558 36 0.50063 36H4.00506H13.0771C13.3502 36 13.5777 35.7724 13.5777 35.4994V32.4956C13.5777 32.2225 13.3502 31.9949 13.0771 31.9949H4.50569C4.23261 31.9949 4.00506 31.7674 4.00506 31.4943V20.4956C4.00506 20.2073 3.77749 19.9949 3.50442 19.9949Z" fill="#00D3F2"/>
</svg>
