<?xml version="1.0" encoding="UTF-8"?>
<svg id="_레이어_1" data-name="레이어 1" xmlns="http://www.w3.org/2000/svg" viewBox="0 0 1603 500">
  <defs>
    <style>
      .cls-1 {
        fill: #7100ee;
        /* fill: #292c31; */
      }

      .cls-1, .cls-2 {
        stroke-width: 0px;
      }

      .cls-2 {
        fill: #fff;
      }
    </style>
  </defs>
  <path class="cls-1" d="m936.76,76.36c91.19,52.22,173,83.81,271.62,72.71,121.38-13.66,170.56-84.34,287.85-38.43,58.91,23.06,102.72,85.94,106.47,152.46,3.66,64.88-27.03,122.6-72.84,158.81-56.43,44.61-133.51,79.98-262.29,78.02-150.82-2.29-217.72-39.76-453.96-42.14-168.64-1.7-279.45,39.06-484.97,42.14-105.73,1.59-229.03-41.15-287.08-111.05C-2.26,336.11-8.64,271.26,9.47,215.93c17.59-53.77,72.48-103.55,134.61-113.53,118.48-19.03,138.66,51.23,244.6,43.33,99.54-7.42,142.89-84.54,219.13-120.15C664.52-.92,729.88-6.47,789.16,7.26c50.08,11.6,97.05,40.14,147.61,69.1"/>
  <path class="cls-2" d="m557.68,279.54c-6.56-38.79-36.49-52.62-62.31-52.62-18.75,0-36.21,6.88-49.15,19.38-14.8,14.29-22.62,34.97-22.62,59.79,0,52.23,37.54,75.6,74.74,75.6,23.13,0,44.83-8.79,56.61-22.95l.4-.47-13.67-13.38-.46.52c-10.01,11.21-27.85,16.22-41.1,16.22-37.02,0-51.51-28.56-52.73-53.32h111.26l.05-.6c.86-9.56.53-19.04-1.01-28.17h0Zm-109.47,9.74c4.84-34.14,30.84-43.28,45.53-43.28,11.01,0,21.54,4.52,29.67,12.73,8.16,8.24,12.84,19.34,12.9,30.55h-88.1Z"/>
  <path class="cls-2" d="m1171.58,279.54h0c-6.56-38.8-36.49-52.62-62.31-52.62-18.75,0-36.21,6.88-49.14,19.38-14.8,14.29-22.62,34.97-22.62,59.79,0,52.23,37.53,75.6,74.73,75.6,23.13,0,44.83-8.79,56.61-22.95l.4-.47-13.67-13.38-.46.52c-10.01,11.21-27.85,16.22-41.09,16.22-37.02,0-51.51-28.56-52.74-53.32h111.27l.05-.6c.86-9.59.52-19.07-1.01-28.17m-109.47,9.73c4.84-34.14,30.84-43.28,45.53-43.28,11,0,21.54,4.52,29.66,12.73,8.16,8.24,12.84,19.34,12.9,30.55h-88.1Z"/>
  <polygon class="cls-2" points="658.62 159.55 606.15 159.55 606.15 179.46 634.03 179.46 634.03 356.19 604.22 356.19 604.22 376.06 688.18 376.06 688.18 356.19 658.62 356.19 658.62 159.55"/>
  <path class="cls-2" d="m777.35,179.96c9.51,0,17.26-7.67,17.26-17.11s-7.74-17.12-17.26-17.12-17.3,7.7-17.3,17.16,7.76,17.07,17.3,17.07"/>
  <polygon class="cls-2" points="789.05 209.39 737.38 209.39 737.38 229.54 764.49 229.54 764.49 356.19 735.46 356.19 735.46 376.06 815.08 376.06 815.08 356.19 789.05 356.19 789.05 209.39"/>
  <path class="cls-2" d="m932.14,247.73c21.67,0,38,15.37,41.08,18.47,1.44,1.44,3.98,4.94,4.01,4.98l.5.68,14.72-17.21-.29-.42c-11.62-17.01-34.05-27.58-58.55-27.58-44.64,0-78.29,33.26-78.29,77.37s33.74,77.94,76.83,77.94c22.09,0,44.2-9.05,57.72-23.61l.4-.43-14.27-16.61-.5.57c-9.3,10.52-25.94,17.59-41.41,17.59-30.01,0-53.51-25.41-53.51-57.84,0-35.01,26.57-53.91,51.57-53.91"/>
  <polygon class="cls-2" points="1476.85 182.45 1379.05 392.8 1396.95 401.06 1495.04 190.97 1476.85 182.45"/>
  <polygon class="cls-2" points="124.83 390.44 222.91 180.35 204.71 171.83 106.92 382.19 124.83 390.44"/>
  <polygon class="cls-2" points="348.78 270.7 299.29 286.78 299.29 234.76 281.22 234.76 281.22 286.78 231.73 270.7 226.15 287.89 275.64 303.97 245.05 346.07 259.67 356.69 290.25 314.59 320.85 356.69 335.46 346.07 304.87 303.97 354.36 287.89 348.78 270.7"/>
  <polygon class="cls-2" points="1370.49 287.89 1364.91 270.7 1315.41 286.78 1315.41 234.76 1297.35 234.76 1297.35 286.78 1247.86 270.7 1242.28 287.89 1291.77 303.97 1261.19 346.07 1275.8 356.69 1306.4 314.59 1336.97 356.69 1351.6 346.07 1321 303.97 1370.49 287.89"/>
</svg>