<svg xmlns="http://www.w3.org/2000/svg" width="176" height="24" viewBox="0 0 176 24" fill="none">
  <g opacity="0.4" clip-path="url(#clip0_2601_1756)">
    <path d="M68.5676 5.72314C63.4662 5.72314 59.4797 9.39882 59.4797 14.0948V14.1894C59.4797 18.8448 63.4392 22.5002 68.5 22.5002C73.5608 22.5002 77.5946 18.8245 77.5946 14.1285V14.0677C77.5946 9.37179 73.6284 5.72314 68.5676 5.72314ZM72.9932 14.1894C73.0113 14.7693 72.9081 15.3466 72.6902 15.8843C72.4724 16.422 72.1447 16.9084 71.7282 17.3122C71.3116 17.7161 70.8153 18.0285 70.2711 18.2296C69.7268 18.4307 69.1466 18.5159 68.5676 18.4799C67.9836 18.5018 67.4012 18.4053 66.8555 18.1962C66.3098 17.987 65.8121 17.6697 65.3923 17.2631C64.9725 16.8566 64.6393 16.3693 64.4128 15.8306C64.1863 15.2919 64.0712 14.7129 64.0743 14.1285V14.0677C64.0573 13.4881 64.1612 12.9113 64.3794 12.374C64.5976 11.8368 64.9253 11.3508 65.3417 10.9472C65.758 10.5436 66.2539 10.2311 66.7976 10.0296C67.3414 9.82821 67.9212 9.74223 68.5 9.7772C69.084 9.75531 69.6663 9.85183 70.212 10.0609C70.7577 10.27 71.2554 10.5874 71.6752 10.994C72.095 11.4005 72.4282 11.8878 72.6547 12.4265C72.8812 12.9652 72.9964 13.5442 72.9932 14.1285V14.1894Z" fill="white"/>
    <path d="M100.034 5.72285C98.9333 5.70418 97.8405 5.90863 96.8213 6.32386C95.802 6.73909 94.8774 7.3565 94.1033 8.13883C93.3292 8.92116 92.7216 9.85221 92.3171 10.8758C91.9126 11.8994 91.7197 12.9943 91.75 14.0945V14.1891C91.75 18.9999 95.4324 22.4999 100.5 22.4999C101.793 22.5528 103.081 22.3101 104.266 21.7902C105.451 21.2704 106.501 20.487 107.338 19.4999L107.378 19.4526L104.595 17.0877L104.554 17.1215C104.033 17.6483 103.41 18.0637 102.724 18.3425C102.038 18.6213 101.302 18.7576 100.561 18.7431C98.5338 18.7431 97.1284 17.7364 96.6149 15.912L96.5676 15.7364H108.122V15.6823C108.122 15.2904 108.182 14.8512 108.182 14.4864C108.203 8.00664 103.797 5.72285 100.034 5.72285ZM96.5068 12.8377L96.5405 12.662C97.0135 10.635 98.3851 9.48637 100.311 9.48637C101.211 9.46001 102.089 9.77222 102.771 10.3614C103.453 10.9505 103.889 11.7738 103.993 12.6688V12.8377H96.5068Z" fill="white"/>
    <path d="M130.297 5.72314C125.203 5.72314 121.209 9.39882 121.209 14.0948V14.1894C121.209 18.8448 125.176 22.5002 130.236 22.5002C135.297 22.5002 139.324 18.8245 139.324 14.1285V14.0677C139.324 9.37179 135.358 5.72314 130.297 5.72314ZM134.723 14.1894C134.741 14.7693 134.638 15.3466 134.42 15.8843C134.202 16.422 133.874 16.9084 133.458 17.3122C133.041 17.7161 132.545 18.0285 132.001 18.2296C131.457 18.4307 130.876 18.5159 130.297 18.4799C129.713 18.5018 129.131 18.4053 128.585 18.1962C128.04 17.987 127.542 17.6697 127.122 17.2631C126.702 16.8566 126.369 16.3693 126.143 15.8306C125.916 15.2919 125.801 14.7129 125.804 14.1285V14.0677C125.787 13.4875 125.891 12.9101 126.11 12.3723C126.328 11.8346 126.657 11.3483 127.074 10.9446C127.491 10.5408 127.987 10.2285 128.532 10.0275C129.077 9.8265 129.657 9.74125 130.236 9.7772C130.82 9.75528 131.402 9.85183 131.948 10.061C132.493 10.2702 132.99 10.5877 133.409 10.9943C133.829 11.401 134.161 11.8883 134.387 12.427C134.613 12.9657 134.727 13.5445 134.723 14.1285V14.1894Z" fill="white"/>
    <path d="M146.649 0.405273H141.804V22.2701H146.649V0.405273Z" fill="white"/>
    <path d="M155.142 7.09473H150.331V22.2704H155.142V7.09473Z" fill="white"/>
    <path d="M166.885 5.72314C161.784 5.72314 157.797 9.39882 157.797 14.0948V14.1894C157.797 18.8448 161.757 22.5002 166.818 22.5002C171.878 22.5002 175.905 18.8245 175.905 14.1285V14.0677C175.905 9.37179 171.946 5.72314 166.885 5.72314ZM171.311 14.1894C171.329 14.7693 171.226 15.3466 171.008 15.8843C170.79 16.422 170.462 16.9084 170.046 17.3122C169.629 17.7161 169.133 18.0285 168.589 18.2296C168.044 18.4307 167.464 18.5159 166.885 18.4799C166.301 18.5018 165.719 18.4053 165.173 18.1962C164.627 17.987 164.13 17.6697 163.71 17.2631C163.29 16.8566 162.957 16.3693 162.73 15.8306C162.504 15.2919 162.389 14.7129 162.392 14.1285V14.0677C162.374 13.4878 162.477 12.9105 162.695 12.3728C162.913 11.8351 163.24 11.3487 163.657 10.9449C164.074 10.541 164.57 10.2286 165.114 10.0275C165.658 9.82644 166.238 9.74118 166.818 9.7772C167.402 9.75531 167.984 9.85183 168.53 10.0609C169.075 10.27 169.573 10.5874 169.993 10.994C170.413 11.4005 170.746 11.8878 170.972 12.4265C171.199 12.9652 171.314 13.5442 171.311 14.1285V14.1894Z" fill="white"/>
    <path d="M86.3649 17.7566L86.277 17.635C86.081 17.2441 85.9946 16.8075 86.027 16.3714V10.1755H89.4797V6.35794H86.027V2.02686H81.5811V6.35794H78.8784V10.1755H81.5811V17.6079C81.5811 20.9863 82.9662 22.466 86.2297 22.466C87.5154 22.5373 88.7998 22.3059 89.9797 21.7904V17.9525C87.9865 18.3917 86.7568 18.3242 86.3649 17.7566Z" fill="white"/>
    <path d="M116.926 -0.000134517C116.222 -0.0251289 115.52 0.091142 114.862 0.341811C114.204 0.592481 113.603 0.972466 113.095 1.45932C112.203 2.31743 111.743 3.635 111.743 5.37149V6.35797H109.331V10.1755H111.743V22.2972H116.473V10.1755H120.365V6.36473H116.419V5.62824C116.419 4.70257 117.007 4.10797 118.088 3.95932C118.86 3.88119 119.64 3.92451 120.399 4.0877V0.385001H120.358C119.244 0.0611743 118.083 -0.0690953 116.926 -0.000134517Z" fill="white"/>
    <path d="M152.73 4.98663C154.092 4.98663 155.196 3.88247 155.196 2.52042C155.196 1.15836 154.092 0.0541992 152.73 0.0541992C151.368 0.0541992 150.264 1.15836 150.264 2.52042C150.264 3.88247 151.368 4.98663 152.73 4.98663Z" fill="white"/>
    <path d="M50.2703 5.40549C48.657 5.33884 47.0761 5.87064 45.8311 6.89873L45.6013 7.10143V5.91224H40.723V22.2974H45.6013V13.5136C45.56 13.0252 45.619 12.5335 45.7747 12.0687C45.9304 11.6039 46.1795 11.1759 46.5068 10.8109C47.1672 10.1839 48.049 9.84378 48.9595 9.86495C49.8315 9.84509 50.6828 10.1321 51.3649 10.6758C51.6449 10.9583 51.8615 11.2972 52.0001 11.6701C52.1388 12.0429 52.1963 12.4411 52.1689 12.8379V22.2974H57.1486V12.3041C57.1976 11.383 57.0546 10.4618 56.729 9.59878C56.4033 8.73577 55.902 7.94979 55.2568 7.29062C53.895 6.0506 52.1118 5.37643 50.2703 5.40549Z" fill="white"/>
    <path d="M29.8243 9.36498C29.8077 9.34157 29.7852 9.32299 29.7591 9.31112C29.733 9.29925 29.7042 9.29452 29.6757 9.29741H20.027C19.4189 9.29741 19.1689 9.00011 19.4257 8.4393L22.5878 1.26362C22.6027 1.23795 22.6105 1.20882 22.6105 1.17916C22.6105 1.14951 22.6027 1.12038 22.5878 1.09471C22.5704 1.07225 22.5477 1.05437 22.5218 1.0426C22.496 1.03083 22.4676 1.02553 22.4392 1.02714H6.73649C6.66843 1.02899 6.60219 1.04951 6.54499 1.08644C6.4878 1.12338 6.44185 1.17532 6.41217 1.2366L0.094598 15.5407C0.0796693 15.5651 0.0717697 15.5931 0.0717697 15.6217C0.0717697 15.6503 0.0796693 15.6784 0.094598 15.7028C0.111185 15.7262 0.133683 15.7448 0.159798 15.7567C0.185912 15.7685 0.214707 15.7733 0.243247 15.7704H9.95946C10.5338 15.7704 10.7905 15.9934 10.5203 16.5677L7.33108 23.7704C7.31616 23.7948 7.30826 23.8228 7.30826 23.8515C7.30826 23.8801 7.31616 23.9081 7.33108 23.9325C7.34767 23.9559 7.37017 23.9745 7.39628 23.9864C7.4224 23.9983 7.45119 24.003 7.47973 24.0001H23.1892C23.2569 23.9989 23.3227 23.9777 23.3784 23.9393C23.4345 23.906 23.4792 23.8565 23.5068 23.7974L29.8243 9.52714C29.8393 9.50273 29.8472 9.47467 29.8472 9.44606C29.8472 9.41744 29.8393 9.38939 29.8243 9.36498Z" fill="white"/>
  </g>
  <defs>
    <clipPath id="clip0_2601_1756">
      <rect width="175.811" height="24" fill="white" transform="translate(0.0945892)"/>
    </clipPath>
  </defs>
</svg>
